<svg width="151" height="25" viewBox="0 0 151 25" fill="none" xmlns="http://www.w3.org/2000/svg">
<path d="M13.11 6.596C13.3887 6.46933 13.8193 6.33 14.402 6.178C15.01 6.00067 15.618 5.912 16.226 5.912C17.29 5.912 18.1767 6.07667 18.886 6.406C19.5953 6.71 20.026 7.166 20.178 7.774C20.4567 8.81267 20.71 9.788 20.938 10.7C21.1913 11.5867 21.432 12.448 21.66 13.284C21.888 14.0947 22.1033 14.9053 22.306 15.716C22.534 16.5267 22.7493 17.3753 22.952 18.262H23.142C23.37 16.7167 23.5727 15.2473 23.75 13.854C23.9273 12.4353 24.092 11.0547 24.244 9.712C24.396 8.344 24.548 7.00133 24.7 5.684C24.852 4.34133 25.004 2.986 25.156 1.618C26.0933 1.086 27.094 0.819999 28.158 0.819999C29.0953 0.819999 29.906 1.02267 30.59 1.428C31.274 1.83333 31.616 2.51733 31.616 3.48C31.616 4.03733 31.5527 4.83533 31.426 5.874C31.3247 6.88733 31.1727 8.02733 30.97 9.294C30.7927 10.5607 30.5773 11.8907 30.324 13.284C30.0707 14.6773 29.8047 16.0073 29.526 17.274C29.2473 18.5407 28.956 19.6933 28.652 20.732C28.3733 21.7453 28.1073 22.5307 27.854 23.088C27.474 23.4427 26.8533 23.734 25.992 23.962C25.1307 24.19 24.244 24.304 23.332 24.304C22.1413 24.304 21.128 24.152 20.292 23.848C19.4813 23.5187 18.9873 23.0627 18.81 22.48C18.4807 21.4667 18.126 20.2633 17.746 18.87C17.366 17.4767 16.9607 15.944 16.53 14.272C16.1753 15.9187 15.808 17.5273 15.428 19.098C15.048 20.6687 14.706 21.9987 14.402 23.088C14.022 23.4427 13.452 23.734 12.692 23.962C11.932 24.19 11.096 24.304 10.184 24.304C9.044 24.304 8.00533 24.152 7.068 23.848C6.156 23.5187 5.56067 23.0627 5.282 22.48C5.054 22.024 4.80067 21.3527 4.522 20.466C4.26867 19.554 4.00267 18.528 3.724 17.388C3.44533 16.2227 3.154 14.9687 2.85 13.626C2.57133 12.2833 2.30533 10.9407 2.052 9.598C1.824 8.25533 1.60867 6.95067 1.406 5.684C1.20333 4.392 1.05133 3.214 0.95 2.15C1.30467 1.82067 1.79867 1.51667 2.432 1.238C3.06533 0.959333 3.74933 0.819999 4.484 0.819999C5.44667 0.819999 6.232 1.03533 6.84 1.466C7.47333 1.87133 7.866 2.568 8.018 3.556C8.42333 6.14 8.75267 8.29333 9.006 10.016C9.28467 11.7387 9.5 13.1573 9.652 14.272C9.82933 15.3613 9.956 16.21 10.032 16.818C10.108 17.426 10.184 17.9073 10.26 18.262H10.45C10.678 17.2487 10.8933 16.3113 11.096 15.45C11.2987 14.5887 11.5013 13.7273 11.704 12.866C11.932 11.9793 12.16 11.042 12.388 10.054C12.616 9.04067 12.8567 7.888 13.11 6.596ZM51.5236 14.766C51.5236 16.3367 51.2829 17.7427 50.8016 18.984C50.3203 20.2 49.6363 21.226 48.7496 22.062C47.8883 22.898 46.8496 23.5313 45.6336 23.962C44.4176 24.3927 43.0623 24.608 41.5676 24.608C40.0729 24.608 38.7176 24.38 37.5016 23.924C36.2856 23.468 35.2343 22.822 34.3476 21.986C33.4863 21.1247 32.8149 20.086 32.3336 18.87C31.8523 17.654 31.6116 16.286 31.6116 14.766C31.6116 13.2713 31.8523 11.916 32.3336 10.7C32.8149 9.484 33.4863 8.458 34.3476 7.622C35.2343 6.76067 36.2856 6.102 37.5016 5.646C38.7176 5.19 40.0729 4.962 41.5676 4.962C43.0623 4.962 44.4176 5.20267 45.6336 5.684C46.8496 6.14 47.8883 6.79867 48.7496 7.66C49.6363 8.496 50.3203 9.522 50.8016 10.738C51.2829 11.954 51.5236 13.2967 51.5236 14.766ZM38.2236 14.766C38.2236 16.3113 38.5149 17.502 39.0976 18.338C39.7056 19.1487 40.5416 19.554 41.6056 19.554C42.6696 19.554 43.4803 19.136 44.0376 18.3C44.6203 17.464 44.9116 16.286 44.9116 14.766C44.9116 13.246 44.6203 12.0807 44.0376 11.27C43.4549 10.434 42.6316 10.016 41.5676 10.016C40.5036 10.016 39.6803 10.434 39.0976 11.27C38.5149 12.0807 38.2236 13.246 38.2236 14.766ZM71.7892 14.766C71.7892 16.3367 71.5486 17.7427 71.0672 18.984C70.5859 20.2 69.9019 21.226 69.0152 22.062C68.1539 22.898 67.1152 23.5313 65.8992 23.962C64.6832 24.3927 63.3279 24.608 61.8332 24.608C60.3386 24.608 58.9832 24.38 57.7672 23.924C56.5512 23.468 55.4999 22.822 54.6132 21.986C53.7519 21.1247 53.0806 20.086 52.5992 18.87C52.1179 17.654 51.8772 16.286 51.8772 14.766C51.8772 13.2713 52.1179 11.916 52.5992 10.7C53.0806 9.484 53.7519 8.458 54.6132 7.622C55.4999 6.76067 56.5512 6.102 57.7672 5.646C58.9832 5.19 60.3386 4.962 61.8332 4.962C63.3279 4.962 64.6832 5.20267 65.8992 5.684C67.1152 6.14 68.1539 6.79867 69.0152 7.66C69.9019 8.496 70.5859 9.522 71.0672 10.738C71.5486 11.954 71.7892 13.2967 71.7892 14.766ZM58.4892 14.766C58.4892 16.3113 58.7806 17.502 59.3632 18.338C59.9712 19.1487 60.8072 19.554 61.8712 19.554C62.9352 19.554 63.7459 19.136 64.3032 18.3C64.8859 17.464 65.1772 16.286 65.1772 14.766C65.1772 13.246 64.8859 12.0807 64.3032 11.27C63.7206 10.434 62.8972 10.016 61.8332 10.016C60.7692 10.016 59.9459 10.434 59.3632 11.27C58.7806 12.0807 58.4892 13.246 58.4892 14.766ZM83.6263 23.848C83.3476 23.924 82.9169 24 82.3343 24.076C81.7516 24.152 81.1816 24.19 80.6243 24.19C79.4589 24.19 78.5849 24 78.0023 23.62C77.4196 23.2147 77.1283 22.3787 77.1283 21.112V15.982C76.4949 15.0447 75.8109 14.006 75.0763 12.866C74.3416 11.726 73.6196 10.5607 72.9103 9.37C72.2009 8.17933 71.5423 7.014 70.9343 5.874C70.3263 4.70867 69.8323 3.64467 69.4523 2.682C69.7816 2.226 70.2249 1.808 70.7823 1.428C71.3649 1.048 72.0743 0.857999 72.9103 0.857999C73.8983 0.857999 74.6963 1.06067 75.3043 1.466C75.9376 1.87133 76.5329 2.63133 77.0903 3.746L80.2443 10.092H80.4723C80.8269 9.30667 81.1309 8.59733 81.3843 7.964C81.6629 7.30533 81.9289 6.65933 82.1823 6.026C82.4356 5.36733 82.7016 4.696 82.9803 4.012C83.2589 3.30267 83.5756 2.492 83.9303 1.58C84.3863 1.352 84.8929 1.17467 85.4503 1.048C86.0076 0.921332 86.5396 0.857999 87.0463 0.857999C87.9329 0.857999 88.6803 1.09867 89.2883 1.58C89.9216 2.036 90.2383 2.73267 90.2383 3.67C90.2383 3.974 90.1749 4.34133 90.0483 4.772C89.9216 5.20267 89.6303 5.86133 89.1743 6.748C88.7183 7.60933 88.0469 8.78733 87.1603 10.282C86.2989 11.7767 85.1209 13.7273 83.6263 16.134V23.848ZM97.2511 19.896C97.6818 19.896 98.1504 19.858 98.6571 19.782C99.1891 19.6807 99.5818 19.554 99.8351 19.402V16.362L97.0991 16.59C96.3898 16.6407 95.8071 16.7927 95.3511 17.046C94.8951 17.2993 94.6671 17.6793 94.6671 18.186C94.6671 18.6927 94.8571 19.1107 95.2371 19.44C95.6424 19.744 96.3138 19.896 97.2511 19.896ZM96.9471 4.962C98.3151 4.962 99.5564 5.10133 100.671 5.38C101.811 5.65867 102.774 6.08933 103.559 6.672C104.37 7.22933 104.99 7.95133 105.421 8.838C105.852 9.69933 106.067 10.7253 106.067 11.916V20.428C106.067 21.0867 105.877 21.6313 105.497 22.062C105.142 22.4673 104.712 22.822 104.205 23.126C102.558 24.114 100.24 24.608 97.2511 24.608C95.9084 24.608 94.6924 24.4813 93.6031 24.228C92.5391 23.9747 91.6144 23.5947 90.8291 23.088C90.0691 22.5813 89.4738 21.9353 89.0431 21.15C88.6378 20.3647 88.4351 19.4527 88.4351 18.414C88.4351 16.666 88.9544 15.3233 89.9931 14.386C91.0318 13.4487 92.6404 12.866 94.8191 12.638L99.7971 12.106V11.84C99.7971 11.1053 99.4678 10.586 98.8091 10.282C98.1758 9.95267 97.2511 9.788 96.0351 9.788C95.0724 9.788 94.1351 9.88933 93.2231 10.092C92.3111 10.2947 91.4878 10.548 90.7531 10.852C90.4238 10.624 90.1451 10.282 89.9171 9.826C89.6891 9.34467 89.5751 8.85067 89.5751 8.344C89.5751 7.68533 89.7271 7.166 90.0311 6.786C90.3604 6.38067 90.8544 6.03867 91.5131 5.76C92.2478 5.48133 93.1091 5.27867 94.0971 5.152C95.1104 5.02533 96.0604 4.962 96.9471 4.962ZM129.373 23.202C129.018 23.5567 128.499 23.8227 127.815 24C127.156 24.2027 126.358 24.304 125.421 24.304C124.484 24.304 123.597 24.1647 122.761 23.886C121.925 23.6073 121.241 22.936 120.709 21.872L116.947 14.196C116.567 13.4107 116.225 12.676 115.921 11.992C115.617 11.2827 115.288 10.472 114.933 9.56L114.705 9.598C114.806 10.966 114.857 12.3593 114.857 13.778C114.882 15.1967 114.895 16.59 114.895 17.958V23.848C114.616 23.924 114.186 24 113.603 24.076C113.046 24.152 112.488 24.19 111.931 24.19C111.374 24.19 110.88 24.152 110.449 24.076C110.018 24 109.664 23.848 109.385 23.62C109.106 23.392 108.891 23.088 108.739 22.708C108.587 22.3027 108.511 21.7833 108.511 21.15V2.15C108.866 1.64333 109.41 1.26333 110.145 1.01C110.88 0.756666 111.665 0.63 112.501 0.63C113.438 0.63 114.325 0.781999 115.161 1.086C116.022 1.36467 116.706 2.02333 117.213 3.062L121.013 10.738C121.393 11.5233 121.735 12.2707 122.039 12.98C122.343 13.664 122.672 14.462 123.027 15.374L123.217 15.336C123.116 13.968 123.052 12.6 123.027 11.232C123.002 9.864 122.989 8.496 122.989 7.128V0.972C123.268 0.895999 123.686 0.819999 124.243 0.743998C124.826 0.667999 125.396 0.63 125.953 0.63C127.068 0.63 127.916 0.832666 128.499 1.238C129.082 1.618 129.373 2.42867 129.373 3.67V23.202ZM150.922 14.766C150.922 16.3367 150.681 17.7427 150.2 18.984C149.719 20.2 149.035 21.226 148.148 22.062C147.287 22.898 146.248 23.5313 145.032 23.962C143.816 24.3927 142.461 24.608 140.966 24.608C139.471 24.608 138.116 24.38 136.9 23.924C135.684 23.468 134.633 22.822 133.746 21.986C132.885 21.1247 132.213 20.086 131.732 18.87C131.251 17.654 131.01 16.286 131.01 14.766C131.01 13.2713 131.251 11.916 131.732 10.7C132.213 9.484 132.885 8.458 133.746 7.622C134.633 6.76067 135.684 6.102 136.9 5.646C138.116 5.19 139.471 4.962 140.966 4.962C142.461 4.962 143.816 5.20267 145.032 5.684C146.248 6.14 147.287 6.79867 148.148 7.66C149.035 8.496 149.719 9.522 150.2 10.738C150.681 11.954 150.922 13.2967 150.922 14.766ZM137.622 14.766C137.622 16.3113 137.913 17.502 138.496 18.338C139.104 19.1487 139.94 19.554 141.004 19.554C142.068 19.554 142.879 19.136 143.436 18.3C144.019 17.464 144.31 16.286 144.31 14.766C144.31 13.246 144.019 12.0807 143.436 11.27C142.853 10.434 142.03 10.016 140.966 10.016C139.902 10.016 139.079 10.434 138.496 11.27C137.913 12.0807 137.622 13.246 137.622 14.766Z" fill="#142535"/>
</svg>
